{
	"asset":{
		"generator":"Khronos glTF Blender I/O v4.2.69",
		"version":"2.0"
	},
	"scene":0,
	"scenes":[
		{
			"name":"Scene",
			"nodes":[
				0,
				1,
				2,
				3,
				4,
				5
			]
		}
	],
	"nodes":[
		{
			"mesh":0,
			"name":"Suzanne",
			"rotation":[
				-0.6906933188438416,
				-0.04546305164694786,
				0.047402556985616684,
				0.7201589345932007
			],
			"translation":[
				0,
				0,
				-3.999999761581421
			]
		},
		{
			"mesh":1,
			"name":"Cone",
			"rotation":[
				-0.34002214670181274,
				0.6071745157241821,
				-0.6105768084526062,
				0.3780476152896881
			],
			"scale":[
				1.0159833431243896,
				1.1965066194534302,
				1
			],
			"translation":[
				-0.023165592923760414,
				0,
				-2.4399099349975586
			]
		},
		{
			"mesh":2,
			"name":"Cone.001",
			"rotation":[
				0.01450318843126297,
				-0.06823213398456573,
				-0.9757649898529053,
				0.20740526914596558
			],
			"scale":[
				-0.25999999046325684,
				-1,
				-0.0699998140335083
			],
			"translation":[
				-0.7664203643798828,
				0.9895361661911011,
				-2.518854856491089
			]
		},
		{
			"mesh":3,
			"name":"Cone.002",
			"rotation":[
				0,
				0,
				-1,
				0
			],
			"scale":[
				-0.25999999046325684,
				-1,
				-0.0699998140335083
			],
			"translation":[
				0.2723991274833679,
				1.0018038749694824,
				-2.328608751296997
			]
		},
		{
			"mesh":4,
			"name":"Cone.003",
			"rotation":[
				0,
				0.5150380730628967,
				-0.8571673631668091,
				0
			],
			"scale":[
				-0.25999999046325684,
				-1,
				-0.0699998140335083
			],
			"translation":[
				0.29924535751342773,
				0.8337862491607666,
				-0.9558681845664978
			]
		},
		{
			"mesh":5,
			"name":"Cone.004",
			"rotation":[
				0,
				0.5150380730628967,
				-0.8571673631668091,
				0
			],
			"scale":[
				-0.25999999046325684,
				-1,
				-0.0699998140335083
			],
			"translation":[
				-0.4801957607269287,
				0.8581681847572327,
				-0.9386641979217529
			]
		}
	],
	"meshes":[
		{
			"name":"Suzanne",
			"primitives":[
				{
					"attributes":{
						"POSITION":0,
						"NORMAL":1,
						"TEXCOORD_0":2
					},
					"indices":3
				}
			]
		},
		{
			"name":"Cone",
			"primitives":[
				{
					"attributes":{
						"POSITION":4,
						"NORMAL":5,
						"TEXCOORD_0":6
					},
					"indices":7
				}
			]
		},
		{
			"name":"Cone.001",
			"primitives":[
				{
					"attributes":{
						"POSITION":8,
						"NORMAL":9,
						"TEXCOORD_0":10
					},
					"indices":7
				}
			]
		},
		{
			"name":"Cone.002",
			"primitives":[
				{
					"attributes":{
						"POSITION":11,
						"NORMAL":12,
						"TEXCOORD_0":13
					},
					"indices":7
				}
			]
		},
		{
			"name":"Cone.003",
			"primitives":[
				{
					"attributes":{
						"POSITION":14,
						"NORMAL":15,
						"TEXCOORD_0":16
					},
					"indices":7
				}
			]
		},
		{
			"name":"Cone.004",
			"primitives":[
				{
					"attributes":{
						"POSITION":17,
						"NORMAL":18,
						"TEXCOORD_0":19
					},
					"indices":7
				}
			]
		}
	],
	"accessors":[
		{
			"bufferView":0,
			"componentType":5126,
			"count":1966,
			"max":[
				1.3671875,
				0.984375,
				0.8515625
			],
			"min":[
				-1.3671875,
				-0.984375,
				-0.8515625
			],
			"type":"VEC3"
		},
		{
			"bufferView":1,
			"componentType":5126,
			"count":1966,
			"type":"VEC3"
		},
		{
			"bufferView":2,
			"componentType":5126,
			"count":1966,
			"type":"VEC2"
		},
		{
			"bufferView":3,
			"componentType":5123,
			"count":2904,
			"type":"SCALAR"
		},
		{
			"bufferView":4,
			"componentType":5126,
			"count":128,
			"max":[
				1,
				1,
				1
			],
			"min":[
				-1,
				-1,
				-1
			],
			"type":"VEC3"
		},
		{
			"bufferView":5,
			"componentType":5126,
			"count":128,
			"type":"VEC3"
		},
		{
			"bufferView":6,
			"componentType":5126,
			"count":128,
			"type":"VEC2"
		},
		{
			"bufferView":7,
			"componentType":5123,
			"count":186,
			"type":"SCALAR"
		},
		{
			"bufferView":8,
			"componentType":5126,
			"count":128,
			"max":[
				1,
				1,
				1
			],
			"min":[
				-1,
				-1,
				-1
			],
			"type":"VEC3"
		},
		{
			"bufferView":9,
			"componentType":5126,
			"count":128,
			"type":"VEC3"
		},
		{
			"bufferView":10,
			"componentType":5126,
			"count":128,
			"type":"VEC2"
		},
		{
			"bufferView":11,
			"componentType":5126,
			"count":128,
			"max":[
				1,
				1,
				1
			],
			"min":[
				-1,
				-1,
				-1
			],
			"type":"VEC3"
		},
		{
			"bufferView":12,
			"componentType":5126,
			"count":128,
			"type":"VEC3"
		},
		{
			"bufferView":13,
			"componentType":5126,
			"count":128,
			"type":"VEC2"
		},
		{
			"bufferView":14,
			"componentType":5126,
			"count":128,
			"max":[
				1,
				1,
				1
			],
			"min":[
				-1,
				-1,
				-1
			],
			"type":"VEC3"
		},
		{
			"bufferView":15,
			"componentType":5126,
			"count":128,
			"type":"VEC3"
		},
		{
			"bufferView":16,
			"componentType":5126,
			"count":128,
			"type":"VEC2"
		},
		{
			"bufferView":17,
			"componentType":5126,
			"count":128,
			"max":[
				1,
				1,
				1
			],
			"min":[
				-1,
				-1,
				-1
			],
			"type":"VEC3"
		},
		{
			"bufferView":18,
			"componentType":5126,
			"count":128,
			"type":"VEC3"
		},
		{
			"bufferView":19,
			"componentType":5126,
			"count":128,
			"type":"VEC2"
		}
	],
	"bufferViews":[
		{
			"buffer":0,
			"byteLength":23592,
			"byteOffset":0,
			"target":34962
		},
		{
			"buffer":0,
			"byteLength":23592,
			"byteOffset":23592,
			"target":34962
		},
		{
			"buffer":0,
			"byteLength":15728,
			"byteOffset":47184,
			"target":34962
		},
		{
			"buffer":0,
			"byteLength":5808,
			"byteOffset":62912,
			"target":34963
		},
		{
			"buffer":0,
			"byteLength":1536,
			"byteOffset":68720,
			"target":34962
		},
		{
			"buffer":0,
			"byteLength":1536,
			"byteOffset":70256,
			"target":34962
		},
		{
			"buffer":0,
			"byteLength":1024,
			"byteOffset":71792,
			"target":34962
		},
		{
			"buffer":0,
			"byteLength":372,
			"byteOffset":72816,
			"target":34963
		},
		{
			"buffer":0,
			"byteLength":1536,
			"byteOffset":73188,
			"target":34962
		},
		{
			"buffer":0,
			"byteLength":1536,
			"byteOffset":74724,
			"target":34962
		},
		{
			"buffer":0,
			"byteLength":1024,
			"byteOffset":76260,
			"target":34962
		},
		{
			"buffer":0,
			"byteLength":1536,
			"byteOffset":77284,
			"target":34962
		},
		{
			"buffer":0,
			"byteLength":1536,
			"byteOffset":78820,
			"target":34962
		},
		{
			"buffer":0,
			"byteLength":1024,
			"byteOffset":80356,
			"target":34962
		},
		{
			"buffer":0,
			"byteLength":1536,
			"byteOffset":81380,
			"target":34962
		},
		{
			"buffer":0,
			"byteLength":1536,
			"byteOffset":82916,
			"target":34962
		},
		{
			"buffer":0,
			"byteLength":1024,
			"byteOffset":84452,
			"target":34962
		},
		{
			"buffer":0,
			"byteLength":1536,
			"byteOffset":85476,
			"target":34962
		},
		{
			"buffer":0,
			"byteLength":1536,
			"byteOffset":87012,
			"target":34962
		},
		{
			"buffer":0,
			"byteLength":1024,
			"byteOffset":88548,
			"target":34962
		}
	],
	"buffers":[
		{
			"byteLength":89572,
			"uri":"Monkey.bin"
		}
	]
}
